<svg id="Calque_1" data-name="Calque 1" xmlns="http://www.w3.org/2000/svg" viewBox="0 0 613.39 191.89"><defs><style>.cls-1{fill:#fff;}</style></defs><title>logo</title><path class="cls-1" d="M199.54,330.07l2.52-5.78c11.49-26.21,26.66-50,46.38-70.82,20.86-22,45-39.37,73.14-50.93a100.84,100.84,0,0,1,11-3.73c-3.29,2.72-6.6,5.4-9.85,8.15-36.38,30.77-67,66.38-90.15,108.15-10.81,19.48-19.74,39.77-25.68,61.3-.56,2-1,4-1.58,6.19C184.6,338,153.21,303.52,109.54,280.18a116.61,116.61,0,0,1,50.89,14.31A112.13,112.13,0,0,1,199.54,330.07Z" transform="translate(-109.54 -195.65)"/><path class="cls-1" d="M439.63,301.07a33,33,0,0,0-32.88-27.13q-21.6,0-43.22,0h-1.59V380.21h25.84V347.4h1.8c6.52-.06,13.05.21,19.53-.25,12.7-.88,22.05-7.19,27.61-18.66C441,319.76,441.46,310.5,439.63,301.07ZM413,317.37A11.48,11.48,0,0,1,402.38,325c-4.59.27-9.21.09-13.82.11a4.47,4.47,0,0,1-.76-.13c0-.51-.07-1-.07-1.43,0-8.6,0-17.2,0-25.8,0-1.2.24-1.66,1.56-1.63,4,.09,8,0,12,0,7.31.05,12.3,4.8,12.84,12.14A20.07,20.07,0,0,1,413,317.37Z" transform="translate(-109.54 -195.65)"/><path class="cls-1" d="M345,358v22.18H276.57V274.05H342.8v22H302.49v19.47h32.23V337.8H302.49V358Z" transform="translate(-109.54 -195.65)"/><path class="cls-1" d="M481.23,380.2h-25.7V274h25.7Z" transform="translate(-109.54 -195.65)"/><path class="cls-1" d="M188.19,293.71c-18.85-19.12-42.7-29.17-68.4-35.77,22.59-1.39,44.21,1.22,63.14,15.37a6.36,6.36,0,0,0,.4-.55c6.44-12.54,15.29-23.24,25.39-32.93,21.21-20.34,46.29-34.26,73.82-44a2,2,0,0,1,1.13-.1c-2.67,1.71-5.35,3.41-8,5.16-18.89,12.54-36.73,26.41-52.76,42.49-10.47,10.51-20,21.77-27.23,34.82C192.91,283.21,190.66,288.56,188.19,293.71Z" transform="translate(-109.54 -195.65)"/><path class="cls-1" d="M519.6,351.26l-1.19,1.68a63,63,0,0,0-7.58-2.37A12.26,12.26,0,0,0,496.41,362c-.34,5.28,1.18,9.78,5.8,12.81a12.6,12.6,0,0,0,15.65-2.1,1.94,1.94,0,0,0,.54-1.11c.06-1.51,0-3,0-4.77-1.45,0-2.76,0-4.07,0-.88,0-1.2-.3-1.16-1.15s0-1.46,1.07-1.44c1.9,0,3.8,0,5.7,0,.79,0,1.11.34,1.11,1.12,0,4.13,0,8.27,0,12.4,0,2-1.59.57-2.53,1.35v-3.41c-2.13,1.06-4.08,2.4-6.24,3a14.76,14.76,0,0,1-18.59-11.55c-1.47-7.46,1.57-14.39,7.77-17.75C506.84,346.55,515.2,347.33,519.6,351.26Z" transform="translate(-109.54 -195.65)"/><path class="cls-1" d="M615.5,363.67c-.92-3.66-3.1-6.29-7-7s-6.94.33-9.21,3.58c-.06.09-.22.11-.5.23v-3.33h-2.59v30.13c2.62.58,2.78.45,2.78-2.06,0-3.22,0-6.43,0-9.9a4.49,4.49,0,0,1,.53.48c3.61,5.5,12.22,4.5,15.15-1.54A15,15,0,0,0,615.5,363.67Zm-2.29,5.55c0,.09,0,.17,0,.22a16.42,16.42,0,0,1-1.45,4,6.46,6.46,0,0,1-11.47-.11,11.26,11.26,0,0,1-.46-10.14,6.74,6.74,0,0,1,6.66-4.21,7.17,7.17,0,0,1,6.42,6.1c.19.92.26,1.87.39,2.81l.29.12Q613.38,368.6,613.21,369.22Z" transform="translate(-109.54 -195.65)"/><path class="cls-1" d="M613.21,369.22q.16-.62.36-1.23l-.29-.12A5.9,5.9,0,0,1,613.21,369.22Z" transform="translate(-109.54 -195.65)"/><path class="cls-1" d="M613.19,369.44c0-.05,0-.13,0-.22a18.81,18.81,0,0,1-1.47,4.2A16.42,16.42,0,0,0,613.19,369.44Z" transform="translate(-109.54 -195.65)"/><path class="cls-1" d="M534.66,311.45V323.7c-2.55-3.61-5.72-4.72-9.57-3.82a8.82,8.82,0,0,0-7,7.44,21.74,21.74,0,0,0,0,7.59,8.46,8.46,0,0,0,6.71,7.32c3.87.85,7.25-.15,9.59-3.64,0,0,.16,0,.39,0V342h2.6v-30.5ZM533.72,336a6.65,6.65,0,0,1-12.14,0,11.46,11.46,0,0,1-.11-9.65,6.53,6.53,0,0,1,6.32-4.26,6.18,6.18,0,0,1,6,4.23,36.84,36.84,0,0,1,1.23,4.71A35.07,35.07,0,0,1,533.72,336Z" transform="translate(-109.54 -195.65)"/><path class="cls-1" d="M509.76,325.28v2.54H507c-2.52,0-5,0-7.55,0-.91,0-1.28.3-1.27,1.24,0,3,.05,6.08,0,9.12,0,1.05.44,1.29,1.37,1.28,3.9,0,7.79,0,11.69,0,2.26,0,2.26,0,2,2.47H495.47V311.47h16.82v2.37H509c-3.18,0-6.36,0-9.55,0-1,0-1.37.28-1.35,1.3,0,2.9.05,5.8,0,8.7,0,1.11.34,1.5,1.47,1.48C502.92,325.24,506.25,325.28,509.76,325.28Z" transform="translate(-109.54 -195.65)"/><path class="cls-1" d="M651.38,319.62c-6.79,0-11.67,4.69-11.68,11.27a11.18,11.18,0,0,0,11.43,11.58A11.33,11.33,0,0,0,662.74,331,11.21,11.21,0,0,0,651.38,319.62Zm-.19,20.27a8.66,8.66,0,0,1-8.66-9,8.65,8.65,0,1,1,17.3.12A8.65,8.65,0,0,1,651.19,339.89Z" transform="translate(-109.54 -195.65)"/><path class="cls-1" d="M553.3,356.91a11.26,11.26,0,0,0-11.65,11.26,11.52,11.52,0,1,0,23,.23A11.17,11.17,0,0,0,553.3,356.91Zm.24,20.36c-4.8.28-8.68-3.48-9-8.68a8.65,8.65,0,1,1,17.28-.7A8.85,8.85,0,0,1,553.54,377.27Z" transform="translate(-109.54 -195.65)"/><path class="cls-1" d="M710,327c-.07-2.71-1.07-5.12-3.7-6.47-3.32-1.7-9.1-1-12.08,1.59l1.22,2c3.22-1.59,4.73-2,6.56-2,2.67.09,4.5,1.48,5,3.81.59,2.65.54,2.71-2.17,2.72-.24,0-.48,0-.72,0-3,.16-6.07.43-8.74,2.14a6.05,6.05,0,0,0-2.85,6.11,5.84,5.84,0,0,0,3.92,5,8.21,8.21,0,0,0,10.1-2.94c.18-.26.34-.52.52-.78l.26,0v3.74h2.7C710.07,336.85,710.17,331.91,710,327Zm-8,12.94a11.94,11.94,0,0,1-1.27.25c-3.33,0-5.42-2-5.28-4.58a4,4,0,0,1,2.37-3.47c2.77-1.4,5.77-1.37,8.76-1.27a1,1,0,0,1,.71.66C707.88,334.61,705.09,339,702,339.91Z" transform="translate(-109.54 -195.65)"/><path class="cls-1" d="M609.86,327.28c-.21-4.56-2.23-6.86-6.13-7.54a11.81,11.81,0,0,0-3.41-.08,11,11,0,0,0-6.27,2.4l1.26,2.06a11.61,11.61,0,0,1,6.68-2c3.51.17,5.58,2.85,4.84,6.52-.8,0-1.64,0-2.48,0-3,.1-6,.34-8.67,1.87a6.08,6.08,0,0,0-3.31,5.73,5.75,5.75,0,0,0,3.09,5.24,8.3,8.3,0,0,0,10.8-2.35l1-1.35V342l1.13.07h1.56C609.91,337,610.07,332.11,609.86,327.28Zm-3.11,6.88c-1,3.8-3.58,6.08-6.76,6a4.65,4.65,0,0,1-4.76-3.85c-.32-1.9.94-3.72,3.26-4.57a14.33,14.33,0,0,1,2.74-.71c.93-.16,1.88-.17,2.67-.24C607.24,330.63,607.58,331.05,606.75,334.16Z" transform="translate(-109.54 -195.65)"/><path class="cls-1" d="M560.49,341.89v-4.62c-.37.46-.6.72-.79,1a9.63,9.63,0,0,1-10.37,4,5.89,5.89,0,0,1-4.57-5.53c-.21-2.5-.24-5-.28-7.53-.05-2.94,0-5.88,0-8.94h3c0,4.53,0,9,0,13.43a12.62,12.62,0,0,0,.26,2.68,4,4,0,0,0,4.2,3.5c4.53.21,8.4-3.68,8.5-8.67.08-3.61,0-7.21,0-10.79a1.67,1.67,0,0,1,.47-.22c2.4-.22,2.4-.22,2.4,2.15v17.25C563.31,342.23,563.31,342.23,560.49,341.89Z" transform="translate(-109.54 -195.65)"/><path class="cls-1" d="M671.28,342h-2.63V320.26h2.59V325l.91-1.29A9.85,9.85,0,0,1,683,319.94a5.55,5.55,0,0,1,4.19,5.36c.25,5.27.18,10.55.18,15.82,0,.3-.55.75-.92.86a7.63,7.63,0,0,1-1.89,0V327.74c-.06-4.48-2.8-6.47-7.11-5.18a8.66,8.66,0,0,0-6.14,8.21c-.07,3.18,0,6.36,0,9.55Z" transform="translate(-109.54 -195.65)"/><path class="cls-1" d="M586.27,357.07h2.52v21.66h-2.63v-4.8l-1.1,1.53A9.58,9.58,0,0,1,574.55,379c-3.29-1-4.25-3.7-4.35-6.66-.17-5,0-10.07,0-15,.15-.12.22-.21.3-.22,2.55-.26,2.54-.26,2.55,2.24,0,4.23,0,8.47.15,12.69.14,3.69,2.6,5.4,6.25,4.57,4-.89,6.63-4.46,6.69-9,0-3.37,0-6.75,0-10.12A1.4,1.4,0,0,1,586.27,357.07Z" transform="translate(-109.54 -195.65)"/><path class="cls-1" d="M587,324.61c-5.23-3.46-9.81-3.28-13,.45a9.48,9.48,0,0,0,.31,12.27c2.86,3,8.51,4,13.27-.17,1.59,1.63,1.59,2.17-.27,3.32a12.16,12.16,0,0,1-12.36.72c-4-1.93-5.81-5.41-6-9.67s1.46-8,5.29-10.24a11.84,11.84,0,0,1,12.22-.16C588.81,322.32,588.79,322.56,587,324.61Z" transform="translate(-109.54 -195.65)"/><path class="cls-1" d="M620.49,314.27v5.9h5.38v2.41h-5.38v10.66c0,4.59,1.27,6,5.89,6.47,0,.34.09.71.1,1.07s0,.74-.05,1.09c-4.62,1-8.38-1.62-8.65-6.22-.22-3.6-.12-7.21-.15-10.82,0-.66,0-1.32,0-2.14h-2.87v-2.32a1.29,1.29,0,0,1,.27-.13c2.7-.14,2.7-.14,2.7-2.89v-1.14C617.73,313.85,617.87,313.75,620.49,314.27Z" transform="translate(-109.54 -195.65)"/><path class="cls-1" d="M722.93,339.69v2.14c-3.14.84-5.7-.79-5.77-4.09-.16-8.72,0-17.46,0-26.14.15-.1.22-.19.3-.2,2.54-.22,2.54-.22,2.54,2.27V335c0,.52,0,1,0,1.56C720.11,338.72,720.68,339.35,722.93,339.69Z" transform="translate(-109.54 -195.65)"/><path class="cls-1" d="M527.73,357.07h2.62V362c1.87-3.12,4-5.53,8.13-5.19v2.66c-4.74.42-7.48,3.23-7.82,8.28-.2,2.93-.13,5.89-.16,8.83,0,2.54,0,2.54-2.77,2.17Z" transform="translate(-109.54 -195.65)"/><path class="cls-1" d="M633.83,320.33v21.5c-.15.08-.23.15-.31.15-2.9.09-2.46.23-2.47-2.32,0-5.74,0-11.48,0-17.23C631,319.89,631.12,319.83,633.83,320.33Z" transform="translate(-109.54 -195.65)"/><path class="cls-1" d="M633.86,314.88H631v-3.43h2.83Z" transform="translate(-109.54 -195.65)"/></svg>